<svg xmlns="http://www.w3.org/2000/svg" version="1.1" xmlns:xlink="http://www.w3.org/1999/xlink" xmlns:svgjs="http://svgjs.dev/svgjs" width="1440" height="560" preserveAspectRatio="none" viewBox="0 0 1440 560"><g mask="url(&quot;#SvgjsMask1050&quot;)" fill="none"><path d="M1015.73 44.21 a169 169 0 1 0 338 0 a169 169 0 1 0 -338 0z" fill="rgba(249, 115, 22, 0.8)" class="triangle-float1"></path><path d="M794.192,545.449C835.456,545.753,877.68,526.975,895.338,489.679C911.362,455.834,888.664,419.939,868.577,388.336C850.525,359.935,827.819,331.861,794.192,330.547C758.646,329.158,727.867,351.938,709.006,382.099C688.747,414.495,677.931,454.326,695.599,488.205C714.433,524.32,753.462,545.148,794.192,545.449" fill="rgba(249, 115, 22, 0.8)" class="triangle-float3"></path><path d="M1118.9 92.43 a94.4 94.4 0 1 0 188.8 0 a94.4 94.4 0 1 0 -188.8 0z" fill="rgba(249, 115, 22, 0.8)" class="triangle-float1"></path><path d="M1252.122,279.145C1301.562,282.511,1353.122,266.835,1379.872,225.121C1408.588,180.341,1408.469,122.52,1382.236,76.242C1355.645,29.333,1306.033,-1.307,1252.122,-0.241C1199.872,0.792,1153.258,34.113,1130.626,81.218C1110.512,123.082,1127.023,169.98,1151.32,209.562C1174.213,246.856,1208.463,276.173,1252.122,279.145" fill="rgba(249, 115, 22, 0.8)" class="triangle-float2"></path><path d="M63.572,391.468C93.413,390.242,111.395,361.596,125.424,335.23C138.343,310.95,148.009,282.528,134.188,258.75C120.418,235.059,90.952,229.916,63.572,228.813C33.36,227.595,-1.389,227.134,-17.643,252.631C-34.663,279.329,-23.742,313.37,-7.755,340.7C8.038,367.698,32.32,392.752,63.572,391.468" fill="rgba(249, 115, 22, 0.8)" class="triangle-float1"></path><path d="M366.61,657.443C397.355,655.438,422.661,637.593,439.968,612.103C460.418,581.984,482.134,545.082,464.538,513.212C446.639,480.793,403.64,478.873,366.61,479.241C330.46,479.6,291.5,484.685,271.996,515.125C251.219,547.552,253.248,590.82,274.569,622.891C294.015,652.141,331.56,659.729,366.61,657.443" fill="rgba(249, 115, 22, 0.8)" class="triangle-float2"></path><path d="M128.7 203.25 a178.94 178.94 0 1 0 357.88 0 a178.94 178.94 0 1 0 -357.88 0z" fill="rgba(249, 115, 22, 0.8)" class="triangle-float1"></path><path d="M152.17 483.19 a97.81 97.81 0 1 0 195.62 0 a97.81 97.81 0 1 0 -195.62 0z" fill="rgba(249, 115, 22, 0.8)" class="triangle-float3"></path><path d="M192.29 92.99 a183.21 183.21 0 1 0 366.42 0 a183.21 183.21 0 1 0 -366.42 0z" fill="rgba(249, 115, 22, 0.8)" class="triangle-float1"></path><path d="M134.545,41.775C154.166,42.194,175.003,35.757,184.287,18.467C193.23,1.813,185.155,-17.662,175.035,-33.628C165.792,-48.21,151.748,-58.554,134.545,-60.01C114.106,-61.74,90.753,-59.216,80.143,-41.661C69.304,-23.726,76.908,-1.137,88.354,16.417C98.636,32.187,115.723,41.373,134.545,41.775" fill="rgba(249, 115, 22, 0.8)" class="triangle-float2"></path><path d="M667.314,660.279C707.274,660.477,743.208,637.295,763.204,602.698C783.217,568.071,785.079,525.524,765.283,490.773C745.292,455.679,707.694,433.554,667.314,434.365C628.225,435.15,595.115,460.509,575.932,494.576C557.138,527.953,554.561,568.212,573.059,601.754C592.201,636.464,627.676,660.082,667.314,660.279" fill="rgba(249, 115, 22, 0.8)" class="triangle-float1"></path><path d="M1132.292,479.467C1177.908,481.793,1224.785,467.733,1250.044,429.678C1277.989,387.575,1285.494,331.571,1259.032,288.521C1233.514,247.007,1180.956,235.581,1132.292,238.111C1088.449,240.39,1047.539,262.083,1026.489,300.609C1006.233,337.683,1012.143,382.283,1033.652,418.644C1054.731,454.278,1090.944,477.359,1132.292,479.467" fill="rgba(249, 115, 22, 0.8)" class="triangle-float3"></path></g><defs><mask id="SvgjsMask1050"><rect width="1440" height="560" fill="#ffffff"></rect></mask><style>
                @keyframes float1 {
                    0%{transform: translate(0, 0)}
                    50%{transform: translate(-10px, 0)}
                    100%{transform: translate(0, 0)}
                }

                .triangle-float1 {
                    animation: float1 5s infinite;
                }

                @keyframes float2 {
                    0%{transform: translate(0, 0)}
                    50%{transform: translate(-5px, -5px)}
                    100%{transform: translate(0, 0)}
                }

                .triangle-float2 {
                    animation: float2 4s infinite;
                }

                @keyframes float3 {
                    0%{transform: translate(0, 0)}
                    50%{transform: translate(0, -10px)}
                    100%{transform: translate(0, 0)}
                }

                .triangle-float3 {
                    animation: float3 6s infinite;
                }
            </style></defs></svg>